<svg width="601" height="495" viewBox="0 0 601 495" fill="none" xmlns="http://www.w3.org/2000/svg">
<g clip-path="url(#clip0_1025_5)">
<path fill-rule="evenodd" clip-rule="evenodd" d="M323 302L501 381L522 387H549L569 381L586 371L601 355L598 343L407 250L369 267L349 290L323 302ZM599 122L582 106L559 95L541 92L513 95L263 204L252 215L242 237L227 249L166 272L81 291L53 302L23 327L11 345L4 362L0 383V402L9 436L23 458L36 471L50 481L72 491L90 495H117L138 490L157 481L185 457L195 442L205 416L208 386L216 362L230 340L253 317L292 293L335 277L362 249L597 138L601 133L599 122ZM101 333L122 336L139 345L155 363L162 383L161 406L152 425L134 442L113 450L90 449L69 439L53 422L45 399L47 375L57 356L71 343L83 337L101 333ZM297 217L312 220L321 230L323 237L319 252L310 260L303 262L288 258L281 251L278 242L281 228L289 220L297 217ZM35 25L20 41L7 64L0 92V115L7 142L16 159L31 177L49 191L67 200L85 205L162 212L224 228L236 205L246 193L275 178L246 158L223 133L210 108L205 79L192 48L171 24L157 14L127 2L92 0L62 8L35 25ZM93 45H114L139 56L155 74L162 94L161 117L151 138L135 153L115 161H92L74 154L56 138L46 117L45 94L54 71L71 54L93 45Z" fill="url(#paint0_linear_1025_5)"/>
</g>
<defs>
<linearGradient id="paint0_linear_1025_5" x1="1.25378e-06" y1="396" x2="533.981" y2="7.00268" gradientUnits="userSpaceOnUse">
<stop stop-color="#8B4FFF"/>
<stop offset="1" stop-color="#B16CFF"/>
</linearGradient>
<clipPath id="clip0_1025_5">
<rect width="601" height="495" fill="white"/>
</clipPath>
</defs>
</svg>
